Coordinates
version=1
nRows=24
nColumns=38
inDegrees=no

Units are S.I. units (second, meters, Newtons, ...)
If the header above contains a line with 'inDegrees', this indicates whether rotational values are in degrees (yes) or radians (no).

endheader
time	pelvis_tilt	pelvis_list	pelvis_rotation	pelvis_tx	pelvis_ty	pelvis_tz	hip_flexion_r	hip_adduction_r	hip_rotation_r	knee_angle_r	ankle_angle_r	subtalar_angle_r	mtp_angle_r	hip_flexion_l	hip_adduction_l	hip_rotation_l	knee_angle_l	ankle_angle_l	subtalar_angle_l	mtp_angle_l	lumbar_extension	lumbar_bending	lumbar_rotation	arm_flex_r	arm_add_r	arm_rot_r	elbow_flex_r	pro_sup_r	wrist_flex_r	wrist_dev_r	arm_flex_l	arm_add_l	arm_rot_l	elbow_flex_l	pro_sup_l	wrist_flex_l	wrist_dev_l
1.73	-0.172587	0.0886299	0.0643927	1.23323	1.00229	-0.346069	-0.131112	0.0105393	0.115992	-0.777514	-0.25068	-0.0297321	-0.00478765	0.567906	0.227763	0.015727	-0.277666	0.23283	-0.0337426	-0.011012	-0.0466821	-0.0438571	0.22962	-0.427687	-0.33169	-0.0622669	2.31724	1.64864	-0.00666416	-0.000370953	-0.959225	-0.153193	-0.161386	2.14964	1.54694	0.0156172	0.0108138
1.74	-0.157213	0.0947461	0.0657474	1.23303	0.998452	-0.345851	-0.126598	0.0168037	0.131252	-0.860993	-0.228015	-0.0297321	-0.00478765	0.55162	0.237126	0.0154012	-0.293392	0.225	-0.0337426	-0.011012	-0.0663389	-0.0515721	0.219873	-0.435264	-0.325334	-0.0756676	2.28086	1.63728	-0.00666416	-0.000370953	-0.935571	-0.152727	-0.162126	2.14902	1.54842	0.0156172	0.0108138
1.75	-0.142172	0.100958	0.0669325	1.23229	0.993621	-0.345568	-0.117197	0.0208757	0.139793	-0.949827	-0.201791	-0.0297321	-0.00478765	0.544994	0.246021	0.0134953	-0.33864	0.218103	-0.0337426	-0.011012	-0.0862971	-0.0593896	0.207854	-0.439574	-0.316927	-0.0876128	2.23728	1.62759	-0.00666416	-0.000370953	-0.908109	-0.153327	-0.162293	2.14572	1.55083	0.0156172	0.0108138
1.76	-0.127684	0.107066	0.0676377	1.23103	0.987951	-0.345218	-0.102876	0.0220352	0.141179	-1.04207	-0.174012	-0.0297321	-0.00478765	0.546637	0.254211	0.0103896	-0.408527	0.214184	-0.0337426	-0.011012	-0.106287	-0.0671877	0.194031	-0.440324	-0.30652	-0.097711	2.18694	1.61988	-0.00666416	-0.000370953	-0.876714	-0.155129	-0.161737	2.13918	1.55367	0.0156172	0.0108138
1.77	-0.113857	0.113004	0.0675272	1.22931	0.981704	-0.344781	-0.0836465	0.0198076	0.136122	-1.1359	-0.145991	-0.0297321	-0.00478765	0.553854	0.261608	0.00665297	-0.495555	0.215249	-0.0337426	-0.011012	-0.126131	-0.0749122	0.178939	-0.437516	-0.294205	-0.105833	2.13075	1.61429	-0.00666416	-0.000370953	-0.841208	-0.158257	-0.16027	2.12885	1.55656	0.0156172	0.0108138
1.78	-0.100698	0.118751	0.0662774	1.22725	0.975231	-0.344249	-0.0595552	0.0140298	0.126214	-1.2296	-0.118388	-0.0297321	-0.00478765	0.563369	0.268241	0.00281229	-0.591206	0.223025	-0.0337426	-0.011012	-0.145661	-0.0825624	0.163098	-0.431505	-0.280135	-0.112038	2.07012	1.6107	-0.00666416	-0.000370953	-0.801506	-0.16276	-0.157742	2.11438	1.55935	0.0156172	0.0108138
1.79	-0.0882729	0.124304	0.0636023	1.22491	0.968813	-0.343625	-0.0307047	0.00488603	0.113537	-1.32156	-0.0913567	-0.0297321	-0.00478765	0.571914	0.274176	-0.000803078	-0.687316	0.238587	-0.0337426	-0.011012	-0.164684	-0.0901208	0.146949	-0.42303	-0.264574	-0.116471	2.00706	1.60877	-0.00666416	-0.000370953	-0.757778	-0.168552	-0.154129	2.09582	1.56211	0.0156172	0.0108138
1.8	-0.076722	0.129653	0.0593041	1.22233	0.962607	-0.34292	0.00279117	-0.00710884	0.100255	-1.41025	-0.0647339	-0.0297321	-0.00478765	0.57672	0.279452	-0.00406919	-0.777013	0.262095	-0.0337426	-0.011012	-0.182877	-0.0974945	0.130795	-0.413185	-0.247937	-0.119266	1.9441	1.60809	-0.00666416	-0.000370953	-0.710587	-0.17535	-0.149625	2.07377	1.56514	0.0156172	0.0108138
1.81	-0.0663606	0.134727	0.0533203	1.21956	0.956714	-0.342169	0.0408072	-0.0211769	0.0882738	-1.49417	-0.0382268	-0.0297321	-0.00478765	0.575784	0.284086	-0.00694611	-0.855199	0.292726	-0.0337426	-0.011012	-0.199764	-0.1045	0.114756	-0.403326	-0.230812	-0.120477	1.88415	1.60829	-0.00666416	-0.000370953	-0.660963	-0.182652	-0.144674	2.04948	1.56879	0.0156172	0.0108138
1.82	-0.0576035	0.139356	0.0457726	1.21666	0.951274	-0.341416	0.0832252	-0.036358	0.0789672	-1.57189	-0.011578	-0.0297321	-0.00478765	0.568024	0.288101	-0.00930507	-0.918684	0.328825	-0.0337426	-0.011012	-0.214693	-0.110863	0.0987233	-0.394916	-0.213945	-0.120055	1.83026	1.60913	-0.00666416	-0.000370953	-0.610362	-0.189763	-0.139954	2.02482	1.57341	0.0156172	0.0108138
1.83	-0.0508745	0.143299	0.0370411	1.21373	0.946464	-0.340718	0.129916	-0.0515965	0.0730099	-1.64201	0.0153149	-0.0297321	-0.00478765	0.553237	0.291507	-0.0107831	-0.966027	0.368151	-0.0337426	-0.011012	-0.226884	-0.116193	0.0823719	-0.389345	-0.198171	-0.117891	1.78526	1.61054	-0.00666416	-0.000370953	-0.560533	-0.195877	-0.13628	2.00213	1.57915	0.0156172	0.0108138
1.84	-0.0465632	0.146243	0.0277499	1.2109	0.94245	-0.340141	0.180657	-0.0658191	0.0703171	-1.70322	0.042335	-0.0297321	-0.00478765	0.531895	0.294261	-0.0107412	-0.997182	0.408179	-0.0337426	-0.011012	-0.23557	-0.119994	0.0652189	-0.387752	-0.1843	-0.113908	1.75141	1.61267	-0.00666416	-0.000370953	-0.513279	-0.200227	-0.134429	1.98391	1.58592	0.0156172	0.0108138
1.85	-0.0450032	0.14782	0.0186792	1.20833	0.93934	-0.339746	0.235022	-0.0780125	0.0701191	-1.75435	0.0691475	-0.0297321	-0.00478765	0.504835	0.29621	-0.00834861	-1.01307	0.446367	-0.0337426	-0.011012	-0.240181	-0.121686	0.0467452	-0.390902	-0.173001	-0.108164	1.73015	1.61578	-0.00666416	-0.000370953	-0.470173	-0.20224	-0.134936	1.97246	1.59336	0.0156172	0.0108138
1.86	-0.0463647	0.147599	0.0106346	1.20612	0.937214	-0.339558	0.292303	-0.0873175	0.0711655	-1.79439	0.0952675	-0.0297321	-0.00478765	0.472992	0.297057	-0.00279001	-1.01518	0.48037	-0.0337426	-0.011012	-0.240456	-0.120687	0.0265601	-0.399129	-0.164702	-0.100949	1.72188	1.62018	-0.00666416	-0.000370953	-0.432311	-0.201683	-0.137889	1.96949	1.60092	0.0156172	0.0108138
1.87	-0.050582	0.145141	0.00429051	1.20432	0.93613	-0.339569	0.351512	-0.0930823	0.0720205	-1.82258	0.120161	-0.0297321	-0.00478765	0.437228	0.296359	0.00649626	-1.00524	0.508159	-0.0337426	-0.011012	-0.236483	-0.116483	0.00455951	-0.412371	-0.159545	-0.0928029	1.72604	1.62613	-0.00666416	-0.000370953	-0.400161	-0.198722	-0.142812	1.97583	1.608	0.0156172	0.0108138
1.88	-0.0573695	0.140069	5.24218e-05	1.20298	0.936108	-0.339748	0.41144	-0.094887	0.0713755	-1.83847	0.143345	-0.0297321	-0.00478765	0.398271	0.293573	0.0196034	-0.985028	0.528051	-0.0337426	-0.011012	-0.228672	-0.10871	-0.0189735	-0.43026	-0.157383	-0.084489	1.7412	1.63367	-0.00666416	-0.000370953	-0.373547	-0.193905	-0.148672	1.99136	1.61406	0.0156172	0.0108138
1.89	-0.0662723	0.132145	-0.00201883	1.2021	0.937132	-0.340054	0.470769	-0.0925327	0.0683011	-1.84192	0.164466	-0.0297321	-0.00478765	0.356738	0.28814	0.0360318	-0.956287	0.538686	-0.0337426	-0.011012	-0.217674	-0.0971934	-0.0433606	-0.452239	-0.157827	-0.0768924	1.76541	1.64261	-0.00666416	-0.000370953	-0.351765	-0.188046	-0.154033	2.01501	1.61872	0.0156172	0.0108138
1.9	-0.0767082	0.121327	-0.00219102	1.20169	0.939155	-0.340446	0.528193	-0.0860141	0.0623915	-1.8331	0.183335	-0.0297321	-0.00478765	0.31319	0.279584	0.0546839	-0.920649	0.539006	-0.0337426	-0.011012	-0.204275	-0.081966	-0.0676137	-0.477664	-0.160317	-0.0708933	1.79645	1.65243	-0.00666416	-0.000370953	-0.333794	-0.182068	-0.157315	2.04508	1.62186	0.0156172	0.0108138
1.91	-0.0880407	0.107776	-0.000989648	1.20173	0.942101	-0.340884	0.582498	-0.0754897	0.053798	-1.81244	0.199924	-0.0297321	-0.00478765	0.26816	0.267617	0.0739688	-0.879645	0.528235	-0.0337426	-0.011012	-0.189323	-0.0632738	-0.0905931	-0.505862	-0.164217	-0.067236	1.83211	1.66239	-0.00666416	-0.000370953	-0.318528	-0.176835	-0.157081	2.07947	1.62364	0.0156172	0.0108138
1.92	-0.0996383	0.0918486	0.000908048	1.20218	0.945869	-0.341332	0.632597	-0.0612645	0.0431612	-1.7805	0.214344	-0.0297321	-0.00478765	0.222165	0.252214	0.0919957	-0.834712	0.505902	-0.0337426	-0.011012	-0.173681	-0.0415618	-0.111195	-0.536148	-0.168914	-0.0664212	1.87042	1.67158	-0.00666416	-0.000370953	-0.30498	-0.173012	-0.152284	2.11604	1.62447	0.0156172	0.0108138
1.93	-0.110948	0.0740744	0.00280866	1.20303	0.950331	-0.341765	0.677591	-0.0438011	0.0314395	-1.73791	0.226823	-0.0297321	-0.00478765	0.175752	0.233667	0.106859	-0.787225	0.471886	-0.0337426	-0.011012	-0.158135	-0.0174391	-0.128536	-0.567807	-0.173899	-0.0686346	1.9097	1.67914	-0.00666416	-0.000370953	-0.292438	-0.170989	-0.142428	2.15285	1.625	0.0156172	0.0108138
1.94	-0.121555	0.0551174	0.00411753	1.20422	0.95534	-0.342168	0.716797	-0.0237356	0.01971	-1.68524	0.237695	-0.0297321	-0.00478765	0.129543	0.21258	0.116915	-0.738546	0.426487	-0.0337426	-0.011012	-0.143331	0.00835939	-0.142082	-0.600072	-0.178828	-0.0737334	1.94864	1.68442	-0.00666416	-0.000370953	-0.28053	-0.170876	-0.127609	2.18832	1.62596	0.0156172	0.0108138
1.95	-0.131227	0.035716	0.00441844	1.20571	0.960732	-0.342533	0.74976	-0.00188006	0.00897044	-1.62297	0.247359	-0.0297321	-0.00478765	0.0842667	0.189818	0.121014	-0.690069	0.370497	-0.0337426	-0.011012	-0.12971	0.0350196	-0.151688	-0.632128	-0.18354	-0.0812907	1.98623	1.68707	-0.00666416	-0.000370953	-0.269216	-0.172544	-0.108426	2.22132	1.62807	0.0156172	0.0108138
1.96	-0.139927	0.0166219	0.00350706	1.20743	0.96633	-0.342862	0.776244	0.0208056	-1.1769e-05	-1.55143	0.256237	-0.0297321	-0.00478765	0.0407693	0.16642	0.118677	-0.643253	0.305262	-0.0337426	-0.011012	-0.117488	0.0616959	-0.157564	-0.663121	-0.188042	-0.0906844	2.02178	1.68708	-0.00666416	-0.000370953	-0.25872	-0.175711	-0.0858356	2.25114	1.63182	0.0156172	0.0108138
